<?xml version="1.0" encoding="iso-8859-1"?>
<!-- Generator: Adobe Illustrator 19.0.0, SVG Export Plug-In . SVG Version: 6.00 Build 0)  -->
<svg version="1.1" id="Layer_1" xmlns="http://www.w3.org/2000/svg" xmlns:xlink="http://www.w3.org/1999/xlink" x="0px" y="0px"
	 viewBox="0 0 473.931 473.931" style="enable-background:new 0 0 473.931 473.931;" xml:space="preserve">
<circle style="fill:#fff;" cx="236.966" cy="236.966" r="236.966"/>
<rect x="133.497" y="94.258" transform="matrix(-0.1577 -0.9875 0.9875 -0.1577 39.1702 519.2893)" style="fill:#e1f5fe;" width="215.117" height="297.361"/>
<polygon style="fill:#b3e5fc;" points="396.683,315.554 118.423,361.357 86.88,168.061 365.147,122.258 "/>
<path style="fill:#a5d6a7;" d="M387.875,281.508l-43.853-31.446c0,0-13.07-12.123-23.001-9.912
	c-8.932,2.002-17.609,15.023-19.244,17.59l-14.701-10.541c0,0-15.326-14.226-26.959-11.618
	c-11.637,2.601-22.971,21.268-22.971,21.268l-3.222,4.483l-27.674-19.854c0,0-18.832-17.478-33.126-14.282
	c-14.297,3.195-28.232,26.147-28.232,26.147l-33.399,46.555l9.59,58.068l271.989-44.781L387.875,281.508z"/>
<g>
	<path style="fill:#fff;" d="M250.893,191.17c-0.015-0.318,0.15-0.621,0.086-0.943c-0.819-4.954-6.829-8.082-13.429-7.001
		c-0.864,0.146-1.59,0.513-2.395,0.778c-2.406-2.305-6.32-3.558-10.645-2.847c-5.594,0.92-9.534,4.692-9.931,8.831
		c-5.253,1.968-8.756,6.181-8.034,10.593c0.688,4.172,4.894,7.012,10.099,7.461c2.327,3.532,7.416,5.557,13.055,4.632
		c5.111-0.842,9.066-3.843,10.57-7.431c1.396,0.225,2.862,0.247,4.393-0.007c5.863-0.958,10.024-5.306,9.306-9.71
		C253.673,193.718,252.46,192.285,250.893,191.17z"/>
	<path style="fill:#fafafa;" d="M308.62,193.232c-0.079-0.221-0.258-0.389-0.292-0.61c-0.576-3.514,2.761-7.005,7.446-7.772
		c0.621-0.105,1.194-0.022,1.785-0.022c1.096-2.107,3.454-3.843,6.511-4.344c3.981-0.662,7.491,0.984,8.711,3.678
		c3.981,0.135,7.3,2.17,7.805,5.306c0.494,2.967-1.706,5.833-5.089,7.326c-0.756,2.896-3.731,5.426-7.734,6.084
		c-3.633,0.599-6.982-0.528-8.816-2.586c-0.883,0.46-1.875,0.812-2.956,0.992c-4.168,0.688-7.959-1.291-8.471-4.419
		C307.303,195.586,307.797,194.347,308.62,193.232z"/>
</g>
<circle style="fill:#e57373;" cx="361.042" cy="302.259" r="62.027"/>
<rect x="330.061" y="293.579" style="fill:#FFFFFF;" width="65.952" height="18.971"/>
<g>
</g>
<g>
</g>
<g>
</g>
<g>
</g>
<g>
</g>
<g>
</g>
<g>
</g>
<g>
</g>
<g>
</g>
<g>
</g>
<g>
</g>
<g>
</g>
<g>
</g>
<g>
</g>
<g>
</g>
</svg>
